<svg data-v-1084b650="" xmlns="http://www.w3.org/2000/svg" viewBox="0 0 400 400">
<!----> <!----> 
<!-- Suppression du fond blanc -->
<!-- <rect data-v-1084b650="" fill="#FFFFFF" x="0" y="0" width="300px" height="300px" class="logo-background-square"></rect>  -->
<!----> 
<g data-v-1084b650="" id="b5a93e15-ef7c-9d7a-680b-cdb17474f15f" fill="#fd2d01" transform="matrix(2.2,0,0,2.2,90.9,130.2)">
<path d="M 5.4 12.7 L 5.4 12.7 Q 3.2 12.7 1.8 11.2 L 1.8 11.2 L 1.8 11.2 Q 0.3 9.7 0.3 7.5 L 0.3 7.5 L 0.3 7.5 Q 0.3 5.4 1.8 3.9 L 1.8 3.9 L 1.8 3.9 Q 3.2 2.4 5.4 2.4 L 5.4 2.4 L 5.4 2.4 Q 7.6 2.4 9.2 3.8 L 9.2 3.8 L 7.8 5.3 L 7.8 5.3 Q 6.8 4.5 5.4 4.5 L 5.4 4.5 L 5.4 4.5 Q 4 4.5 3.2 5.3 L 3.2 5.3 L 3.2 5.3 Q 2.3 6.2 2.3 7.5 L 2.3 7.5 L 2.3 7.5 Q 2.3 8.9 3.2 9.8 L 3.2 9.8 L 3.2 9.8 Q 4 10.6 5.4 10.6 L 5.4 10.6 L 5.4 10.6 Q 6.5 10.6 7.1 10.2 L 7.1 10.2 L 7.1 8.4 L 5.8 8.4 L 5.8 6.5 L 9.2 6.5 L 9.2 11.3 L 9.2 11.3 Q 7.6 12.7 5.4 12.7 L 5.4 12.7 Z M 12.8 5.8 L 12.8 6.6 L 12.8 6.6 Q 13.6 5.8 14.6 5.8 L 14.6 5.8 L 14.6 5.8 Q 15 5.8 15.3 5.9 L 15.3 5.9 L 15 7.8 L 15 7.8 Q 14.6 7.5 14 7.5 L 14 7.5 L 14 7.5 Q 13.3 7.5 12.8 8.5 L 12.8 8.5 L 12.8 12.7 L 10.9 12.7 L 10.9 6 L 12.8 5.8 Z M 19.6 12.7 L 19.6 12.7 Q 18.1 12.7 17.1 11.7 L 17.1 11.7 L 17.1 11.7 Q 16.1 10.7 16.1 9.3 L 16.1 9.3 L 16.1 9.3 Q 16.1 7.8 17.1 6.8 L 17.1 6.8 L 17.1 6.8 Q 18.1 5.8 19.6 5.8 L 19.6 5.8 L 19.6 5.8 Q 21.1 5.8 22.1 6.8 L 22.1 6.8 L 22.1 6.8 Q 23.1 7.8 23.1 9.3 L 23.1 9.3 L 23.1 9.3 Q 23.1 10.8 22.1 11.7 L 22.1 11.7 L 22.1 11.7 Q 21.1 12.7 19.6 12.7 L 19.6 12.7 Z M 19.6 11.1 L 19.6 11.1 L 19.6 11.1 Q 20.4 11.1 20.9 10.6 L 20.9 10.6 L 20.9 10.6 Q 21.4 10 21.4 9.3 L 21.4 9.3 L 21.4 9.3 Q 21.4 8.5 20.9 8 L 20.9 8 L 20.9 8 Q 20.4 7.4 19.6 7.4 L 19.6 7.4 L 19.6 7.4 Q 18.8 7.4 18.3 8 L 18.3 8 L 18.3 8 Q 17.9 8.5 17.9 9.3 L 17.9 9.3 L 17.9 9.3 Q 17.9 10 18.3 10.6 L 18.3 10.6 L 18.3 10.6 Q 18.8 11.1 19.6 11.1 Z M 28.5 10.3 L 28.5 10.3 L 28.5 5.8 L 30.4 5.8 L 30.4 12.7 L 28.5 12.7 L 28.5 12.1 L 28.5 12.1 Q 27.8 12.7 26.9 12.7 L 26.9 12.7 L 26.9 12.7 Q 25.6 12.7 24.9 11.9 L 24.9 11.9 L 24.9 11.9 Q 24.2 11.1 24.2 10.1 L 24.2 10.1 L 24.2 5.8 L 26.1 5.8 L 26.1 9.6 L 26.1 9.6 Q 26.1 10.3 26.5 10.7 L 26.5 10.7 L 26.5 10.7 Q 26.8 11 27.5 11.1 L 27.5 11.1 L 27.5 11.1 Q 28.1 11 28.5 10.3 Z M 34 15.6 L 32.1 15.5 L 32.1 6 L 34 5.8 L 34 6.4 L 34 6.4 Q 34.7 5.8 35.5 5.8 L 35.5 5.8 L 35.5 5.8 Q 37 5.8 38 6.9 L 38 6.9 L 38 6.9 Q 38.9 7.9 38.9 9.3 L 38.9 9.3 L 38.9 9.3 Q 38.9 10.6 38 11.6 L 38 11.6 L 38 11.6 Q 37 12.7 35.5 12.7 L 35.5 12.7 L 35.5 12.7 Q 34.5 12.6 34 12.1 L 34 12.1 L 34 15.6 Z M 34 8.6 L 34 8.6 L 34 9.7 L 34 9.7 Q 34.1 10.9 35.4 11.1 L 35.4 11.1 L 35.4 11.1 Q 37 11 37.3 9.4 L 37.3 9.4 L 37.3 9.4 Q 37.2 7.5 35.4 7.4 L 35.4 7.4 L 35.4 7.4 Q 34.1 7.6 34 8.6 Z M 43.4 12.7 L 43.4 12.7 Q 41.9 12.7 40.9 11.7 L 40.9 11.7 L 40.9 11.7 Q 39.9 10.7 39.9 9.3 L 39.9 9.3 L 39.9 9.3 Q 39.9 7.8 40.9 6.8 L 40.9 6.8 L 40.9 6.8 Q 41.9 5.8 43.4 5.8 L 43.4 5.8 L 43.4 5.8 Q 44.8 5.8 45.8 6.8 L 45.8 6.8 L 45.8 6.8 Q 46.8 7.8 46.8 9.3 L 46.8 9.3 L 46.8 9.3 Q 46.8 10.8 45.8 11.7 L 45.8 11.7 L 45.8 11.7 Q 44.8 12.7 43.4 12.7 L 43.4 12.7 Z M 43.4 11.1 L 43.4 11.1 L 43.4 11.1 Q 44.1 11.1 44.6 10.6 L 44.6 10.6 L 44.6 10.6 Q 45.1 10 45.1 9.3 L 45.1 9.3 L 45.1 9.3 Q 45.1 8.5 44.6 8 L 44.6 8 L 44.6 8 Q 44.1 7.4 43.3 7.4 L 43.3 7.4 L 43.3 7.4 Q 42.6 7.4 42.1 8 L 42.1 8 L 42.1 8 Q 41.6 8.5 41.6 9.3 L 41.6 9.3 L 41.6 9.3 Q 41.6 10 42.1 10.6 L 42.1 10.6 L 42.1 10.6 Q 42.6 11.1 43.4 11.1 Z M 50 8.3 L 50 8.3 L 50 12.7 L 48.1 12.7 L 48.1 6 L 50 5.8 L 50 6.4 L 50 6.4 Q 50.7 5.8 51.7 5.8 L 51.7 5.8 L 51.7 5.8 Q 53 5.8 53.6 6.6 L 53.6 6.6 L 53.6 6.6 Q 54.4 5.8 55.9 5.8 L 55.9 5.8 L 55.9 5.8 Q 57.2 5.8 57.9 6.6 L 57.9 6.6 L 57.9 6.6 Q 58.6 7.4 58.6 8.4 L 58.6 8.4 L 58.6 12.7 L 56.7 12.7 L 56.7 8.9 L 56.7 8.9 Q 56.7 8.2 56.4 7.8 L 56.4 7.8 L 56.4 7.8 Q 56 7.5 55.4 7.5 L 55.4 7.5 L 55.4 7.5 Q 54.8 7.5 54.4 8.2 L 54.4 8.2 L 54.4 8.2 Q 54.3 8.4 54.3 8.6 L 54.3 8.6 L 54.3 12.7 L 52.4 12.7 L 52.4 8.9 L 52.4 8.9 Q 52.4 8.2 52.1 7.8 L 52.1 7.8 L 52.1 7.8 Q 51.8 7.5 51.1 7.5 L 51.1 7.5 L 51.1 7.5 Q 50.5 7.5 50 8.3 Z M 61.1 7.8 L 60.4 6.7 L 60.4 6.7 Q 61.7 5.8 63.4 5.8 L 63.4 5.8 L 63.4 5.8 Q 64.6 5.8 65.3 6.5 L 65.3 6.5 L 65.3 6.5 Q 66.1 7.2 66.1 8.6 L 66.1 8.6 L 66.1 12.7 L 64.2 12.7 L 64.2 12.1 L 64.2 12.1 Q 63.3 12.7 62.6 12.7 L 62.6 12.7 L 62.6 12.7 Q 61.3 12.7 60.6 12.1 L 60.6 12.1 L 60.6 12.1 Q 59.9 11.5 59.9 10.5 L 59.9 10.5 L 59.9 10.5 Q 59.9 9.5 60.6 8.8 L 60.6 8.8 L 60.6 8.8 Q 61.2 8 62.6 8 L 62.6 8 L 62.6 8 Q 63.3 8 64.2 8.4 L 64.2 8.4 L 64.2 8.2 L 64.2 8.2 Q 64.1 7.5 63 7.4 L 63 7.4 L 63 7.4 Q 61.8 7.4 61.1 7.8 L 61.1 7.8 Z M 64.2 10.6 L 64.2 10.6 L 64.2 9.8 L 64.2 9.8 Q 63.9 9.3 62.9 9.3 L 62.9 9.3 L 62.9 9.3 Q 61.6 9.5 61.5 10.3 L 61.5 10.3 L 61.5 10.3 Q 61.6 11.1 62.9 11.2 L 62.9 11.2 L 62.9 11.2 Q 63.9 11.2 64.2 10.6 Z M 69.7 8.3 L 69.7 8.3 L 69.7 12.7 L 67.8 12.7 L 67.8 6 L 69.7 5.8 L 69.7 6.5 L 69.7 6.5 Q 70.4 5.8 71.3 5.8 L 71.3 5.8 L 71.3 5.8 Q 72.6 5.8 73.3 6.6 L 73.3 6.6 L 73.3 6.6 Q 74 7.4 74 8.4 L 74 8.4 L 74 12.7 L 72.1 12.7 L 72.1 8.9 L 72.1 8.9 Q 72.1 8.2 71.7 7.8 L 71.7 7.8 L 71.7 7.8 Q 71.4 7.5 70.7 7.5 L 70.7 7.5 L 70.7 7.5 Q 70.1 7.5 69.7 8.3 Z M 77.5 12.7 L 75.6 12.7 L 75.6 5.8 L 77.5 5.8 L 77.5 12.7 Z M 75.5 4.2 L 75.5 4.2 L 75.5 4.2 Q 75.5 4.6 75.8 4.9 L 75.8 4.9 L 75.8 4.9 Q 76.1 5.2 76.6 5.2 L 76.6 5.2 L 76.6 5.2 Q 77 5.2 77.3 4.9 L 77.3 4.9 L 77.3 4.9 Q 77.6 4.6 77.6 4.2 L 77.6 4.2 L 77.6 4.2 Q 77.6 3.8 77.3 3.5 L 77.3 3.5 L 77.3 3.5 Q 77 3.2 76.5 3.2 L 76.5 3.2 L 76.5 3.2 Q 76.1 3.2 75.8 3.5 L 75.8 3.5 L 75.8 3.5 Q 75.5 3.8 75.5 4.2 Z M 80.1 7.8 L 79.3 6.7 L 79.3 6.7 Q 80.6 5.8 82.3 5.8 L 82.3 5.8 L 82.3 5.8 Q 83.5 5.8 84.3 6.5 L 84.3 6.5 L 84.3 6.5 Q 85 7.2 85 8.6 L 85 8.6 L 85 12.7 L 83.1 12.7 L 83.1 12.1 L 83.1 12.1 Q 82.2 12.7 81.6 12.7 L 81.6 12.7 L 81.6 12.7 Q 80.2 12.7 79.5 12.1 L 79.5 12.1 L 79.5 12.1 Q 78.8 11.5 78.8 10.5 L 78.8 10.5 L 78.8 10.5 Q 78.8 9.5 79.5 8.8 L 79.5 8.8 L 79.5 8.8 Q 80.1 8 81.6 8 L 81.6 8 L 81.6 8 Q 82.2 8 83.1 8.4 L 83.1 8.4 L 83.1 8.2 L 83.1 8.2 Q 83.1 7.5 82 7.4 L 82 7.4 L 82 7.4 Q 80.8 7.4 80.1 7.8 L 80.1 7.8 Z M 83.1 10.6 L 83.1 10.6 L 83.1 9.8 L 83.1 9.8 Q 82.8 9.3 81.8 9.3 L 81.8 9.3 L 81.8 9.3 Q 80.5 9.5 80.5 10.3 L 80.5 10.3 L 80.5 10.3 Q 80.5 11.1 81.8 11.2 L 81.8 11.2 L 81.8 11.2 Q 82.8 11.2 83.1 10.6 Z"></path>
</g> 
<!----> <g data-v-1084b650="" id="9269873b-566f-aa23-fe77-697bbc54db67" stroke="none" fill="#ffd7d7" transform="matrix(0.2,0,0,0.2,35.8,124.1)">
<svg xmlns="http://www.w3.org/2000/svg" viewBox="-205 207 170 170">
<switch>
<g>
<path d="M -155 298.8 c 11.2 0 21.7 -4.3 29.6 -12.2 c 7.9 -7.9 12.2 -18.4 12.2 -29.6 c 0 -11.2 -4.3 -21.7 -12.2 -29.6 c -7.9 -7.9 -18.4 -12.2 -29.6 -12.2 s -21.7 4.3 -29.6 12.2 c -7.9 7.9 -12.2 18.4 -12.2 29.6 c 0 11.2 4.3 21.7 12.2 29.6 c 7.9 7.9 18.4 12.2 29.6 12.2 z m 2.4 -7.1 c -0.8 0.1 -1.6 0.1 -2.4 0.1 c -1.1 0 -2.2 -0.1 -3.3 -0.2 c -3.6 -5.6 -6.3 -11.6 -7.9 -17.9 h 17.7 c 0.6 1.5 1.7 2.9 3 3.8 c -1.7 5 -4.1 9.7 -7.1 14.2 z m 9.5 -2 c 1.9 -3.5 3.4 -7 4.6 -10.7 c 2.9 -0.6 5.2 -2.6 6.3 -5.3 h 7.7 c -4 7.3 -10.7 13 -18.6 16 z m 22.8 -32.7 c 0 3.3 -0.5 6.5 -1.3 9.6 h -10.8 c -0.6 -1.3 -1.6 -2.5 -2.8 -3.4 c 0.2 -2.2 0.3 -4.4 0.3 -6.6 c 0 -3.1 -0.2 -6.2 -0.6 -9.2 h 13.8 c 1 3 1.4 6.3 1.4 9.6 z m -4.2 -16.7 h -12.2 c -1.3 -5.5 -3.2 -10.7 -5.8 -15.7 c 7.6 2.9 14 8.6 18 15.7 z m -17.4 16.3 c 0 1.7 -0.1 3.4 -0.2 5.1 c -2.8 0.6 -5.1 2.4 -6.2 4.9 h -19.3 c -0.4 -3 -0.7 -6.1 -0.7 -9.1 c 0 -1.9 0.1 -3.8 0.3 -5.7 c 2.6 -0.5 4.7 -2.2 6 -4.4 h 19.5 c 0.4 3 0.6 6.1 0.6 9.2 z m -15.7 -34.2 c 0.9 -0.1 1.8 -0.1 2.6 -0.1 c 1 0 2 0 3 0.1 c 3.6 5.6 6.3 11.6 7.9 17.9 h -17.4 c -0.6 -1.7 -1.7 -3.2 -3.1 -4.3 c 1.8 -4.8 4.1 -9.3 7 -13.6 z m -9.5 2 c -1.7 3.2 -3.2 6.6 -4.4 10 c -3.1 0.6 -5.6 2.9 -6.6 5.8 h -7.3 c 3.9 -7.1 10.4 -12.8 18.3 -15.8 z m -22.6 32.6 c 0 -3.3 0.5 -6.6 1.4 -9.6 h 10.9 c 0.6 1.1 1.5 2.1 2.5 2.9 c -0.2 2.4 -0.4 4.8 -0.4 7.2 c 0 3.1 0.2 6.1 0.6 9.1 h -13.6 c -1 -3.1 -1.4 -6.3 -1.4 -9.6 z m 16.2 16.6 c 1.3 5.4 3.2 10.7 5.8 15.7 c -7.6 -3 -13.9 -8.6 -17.8 -15.7 h 12 z">
</path>
</g>
</switch>
</svg>
</g>

</svg>